<svg id="visual" viewBox="0 0 900 600" width="900" height="600" xmlns="http://www.w3.org/2000/svg" xmlns:xlink="http://www.w3.org/1999/xlink" version="1.1"><g transform="translate(479.8139184363114 297.4246896529337)"><path d="M127.2 -169C158 -125.8 171.3 -79.2 179 -32.1C186.6 15 188.6 62.5 173.8 111.8C158.9 161 127.4 212.1 78.5 240.7C29.6 269.4 -36.5 275.6 -80.9 248.2C-125.3 220.8 -147.9 159.6 -177.3 104.5C-206.6 49.3 -242.7 0.1 -244.4 -52.3C-246.2 -104.8 -213.7 -160.4 -167.3 -200.9C-120.8 -241.3 -60.4 -266.7 -6.1 -259.4C48.2 -252.1 96.4 -212.2 127.2 -169" fill="#8dba00"></path></g></svg>